
        <svg xmlns="http://www.w3.org/2000/svg" xmlns:xlink="http://www.w3.org/1999/xlink" version="1.1" width="3149.059792231925" height="939.0766910611251" viewBox="0 0 3149.059792231925 939.0766910611251">
			
			<g transform="scale(7.452989611596231) translate(10, 10)">
				<defs id="SvgjsDefs11980"/><g id="SvgjsG11981" featureKey="symbolGroupContainer" transform="matrix(1,0,0,1,0,0)" fill="#fff">    <path xmlns="http://www.w3.org/2000/svg" fill-rule="nonzero" d="             M0,0             H79             V106             H0,0             z             M4,4             v98             h71             v-98             z     "/></g><g id="SvgjsG11982" featureKey="symbolFeature-0" transform="matrix(3.2765646503554633,0,0,3.2765646503554633,-0.0817480024616728,13.547834040753639)" fill="#fff"><g xmlns="http://www.w3.org/2000/svg"><g><path d="M14.602,20.194H9.399c-0.246,0-0.445-0.2-0.445-0.445c0-0.246,0.2-0.445,0.445-0.445h5.204c0.246,0,0.445,0.2,0.445,0.445    C15.048,19.995,14.848,20.194,14.602,20.194z"/></g><g><path d="M14.699,21.498H9.495c-0.246,0-0.445-0.2-0.445-0.445s0.2-0.445,0.445-0.445h5.204c0.246,0,0.445,0.2,0.445,0.445    S14.944,21.498,14.699,21.498z"/></g><path d="M14.307,22.069c-0.022-0.013-0.046-0.016-0.069-0.025c-0.005-0.002-0.01-0.003-0.015-0.005   c-0.044-0.016-0.088-0.026-0.134-0.027c-0.01-0.001-0.019-0.006-0.029-0.006H9.924c-0.245,0-0.445,0.199-0.445,0.445   c0,0.133,0.062,0.25,0.156,0.332c0.005,0.008,0.006,0.018,0.012,0.025c0.518,0.68,1.362,1.054,2.376,1.054   c1.148,0,1.968-0.398,2.438-1.182C14.587,22.469,14.518,22.195,14.307,22.069z"/><g><path d="M12.553,11.218c0.001-0.001,0.002-0.001,0.003-0.002l1.249-1.657c0.147-0.197,0.108-0.476-0.088-0.624    c-0.197-0.147-0.476-0.108-0.624,0.088l-0.848,1.126c-0.183-0.549-0.175-2.319-0.126-3.326c0.012-0.245-0.177-0.454-0.423-0.466    c-0.238-0.01-0.454,0.177-0.466,0.423c-0.011,0.221-0.08,1.77,0.03,2.871l-0.434-0.338c-0.196-0.153-0.475-0.116-0.625,0.078    c-0.151,0.194-0.116,0.474,0.078,0.625l1.311,1.021c0.352,1.239,0.411,2.64,0.181,4.352l0.118,0.088    c0.08,0.06,0.173,0.089,0.267,0.089c0.131,0,0.261-0.058,0.349-0.168c0,0,0.082-0.104,0.199-0.253    C12.876,13.65,12.821,12.377,12.553,11.218z"/><path d="M18.524,4.477c-1.143-2.636-3.677-4.339-6.456-4.339h-0.134c-2.778,0-5.312,1.703-6.456,4.339    C4.459,6.826,4.83,9.619,6.403,11.565c1.647,2.401,1.505,4.83,1.503,4.865c-0.083,1.896,0.92,2.24,1.035,2.273    c0.04,0.011,0.081,0.017,0.123,0.017h5.873c0.042,0,0.084-0.006,0.123-0.017c0.115-0.033,1.119-0.377,1.035-2.284    c-0.001-0.025-0.143-2.453,1.483-4.826C19.172,9.62,19.543,6.826,18.524,4.477z M13.668,13.877    c-0.232,0.331-0.698,0.929-0.964,1.268c-0.074,0.645-0.188,1.329-0.342,2.063c-0.046,0.21-0.23,0.354-0.436,0.354    c-0.03,0-0.061-0.003-0.092-0.009c-0.241-0.051-0.395-0.288-0.344-0.528c0.122-0.58,0.212-1.119,0.281-1.636l-0.692-0.519    c-1.176-0.891-2.048-2.783-2.084-2.863C7.95,9.305,9.549,6.868,9.617,6.766c1.035-1.753,0.918-2.935,0.917-2.947    c-0.018-0.165,0.057-0.328,0.194-0.421c0.138-0.092,0.316-0.103,0.462-0.023c2.95,1.615,3.703,3.799,3.733,3.892    C16.364,10.621,13.779,13.745,13.668,13.877z"/></g></g></g><g id="SvgjsG11983" featureKey="nameFeature-0" transform="matrix(2.281442051620951,0,0,2.281442051620951,98.17868164468743,-17.559817633768183)" fill="#fff"><path d="M23.92 40 l-4.8 -16.92 l-4.72 16.92 l-7.36 0 l-6.68 -27.4 l6.52 0 l4.2 19.68 l5.48 -19.68 l5.48 0 l5.44 19.88 l4.36 -19.88 l6.16 0 l-6.68 27.4 l-7.4 0 z M45.24 40 l-5.76 0 l0 -5.8 l5.76 0 l0 5.8 z M61.36 40 l-6.2 0 l0 -21.72 l-8.16 0 l0 -5.68 l22.52 0 l0 5.68 l-8.16 0 l0 21.72 z M77 40 l-5.76 0 l0 -5.8 l5.76 0 l0 5.8 z M79.84000000000002 40 l0 -27.4 l11.28 0 c6.12 0 8.84 3.4 8.84 7.44 c0 2.44 -1.16 4.4 -3.44 5.56 c3.44 1.04 5.28 3.36 5.28 6.56 c0 4.48 -3.16 7.84 -9.64 7.84 l-12.32 0 z M90.68 17.92 l-4.64 0 l0 5.6 l4.64 0 c2.12 0 3.2 -1.2 3.2 -2.84 c0 -1.6 -1.08 -2.76 -3.2 -2.76 z M91.80000000000001 28.759999999999998 l-5.76 0 l0 5.92 l5.8 0 c2.4 0 3.76 -1.2 3.76 -2.88 c0 -1.8 -1.36 -3.04 -3.8 -3.04 z M109.52000000000001 40 l-5.76 0 l0 -5.8 l5.76 0 l0 5.8 z M122.32000000000002 40.52 c-6.92 0 -10.72 -3.44 -11.08 -9.08 l6.2 0 c0.12 2.08 1.32 4.16 5.04 4.16 c3.12 0 4.72 -1.24 4.72 -2.96 c0 -2.12 -2.68 -2.68 -5.8 -3.36 c-4.36 -1.04 -9.68 -2.32 -9.68 -8.84 c0 -4.8 3.72 -8.36 10.28 -8.36 c6.68 0 10.36 3.64 10.76 9 l-6.24 0 c-0.12 -2.2 -1.32 -3.96 -4.68 -3.96 c-2.48 0 -4.12 1 -4.12 2.8 c0 2.32 2.72 2.96 5.84 3.68 c4.48 1 9.84 2.12 9.84 8.28 c0 5 -3.92 8.64 -11.08 8.64 z"/></g><g id="SvgjsG11984" featureKey="sloganFeature-0" transform="matrix(0.6573712925160661,0,0,0.6573712925160661,121.47410315406259,84.30478121142559)" fill="#fff"><path d="M5.18 20 l-4.38 -15.6 l4.26 0 l2.52 9.3 l2.92 -9.3 l3.56 0 l2.92 9.28 l2.52 -9.28 l4.28 0 l-4.38 15.6 l-4.14 0 l-2.98 -9.06 l-2.96 9.06 l-4.14 0 z M29.064000000000004 20 l6.32 -15.6 l3.96 0 l6.3 15.6 l-4.36 0 l-1.26 -3.48 l-5.3 0 l-1.3 3.48 l-4.36 0 z M35.964000000000006 13.280000000000001 l2.78 -0.02 l-1.38 -3.74 z M57.088 20 l0 -5.72 l-6.16 -9.88 l4.7 0 l3.44 5.66 l3.46 -5.66 l4.72 0 l-6.18 9.88 l0 5.72 l-3.98 0 z M79.172 20.3 c-1.94 0 -3.52 -0.42 -4.76 -1.28 s-1.86 -2.02 -1.86 -3.52 l0 -0.18 l-0.02 -0.8 l3.92 0 l0 0.9 c0 0.34 0.24 0.66 0.7 0.96 s1.1 0.46 1.94 0.46 c0.7 0 1.2 -0.1 1.52 -0.28 c0.3 -0.18 0.46 -0.42 0.46 -0.68 c0 -0.32 -0.2 -0.6 -0.58 -0.84 c-0.4 -0.24 -1.1 -0.52 -2.08 -0.86 c-0.62 -0.22 -1.14 -0.4 -1.56 -0.56 s-0.92 -0.4 -1.5 -0.72 c-0.58 -0.3 -1.06 -0.64 -1.4 -0.98 s-0.64 -0.76 -0.9 -1.28 s-0.38 -1.08 -0.38 -1.7 c0 -1.46 0.56 -2.64 1.7 -3.52 s2.6 -1.32 4.4 -1.32 c1.86 0 3.38 0.46 4.58 1.38 s1.8 2.14 1.8 3.66 l0 0.98 l-3.9 0 l0 -0.9 c0 -0.42 -0.2 -0.82 -0.62 -1.16 s-1.02 -0.5 -1.78 -0.5 c-0.62 0 -1.1 0.1 -1.42 0.3 c-0.32 0.22 -0.48 0.46 -0.48 0.76 s0.18 0.54 0.54 0.74 c0.36 0.22 1.04 0.5 2.04 0.84 l1.02 0.36 l1.08 0.44 c0.46 0.22 0.84 0.4 1.12 0.58 s0.6 0.42 0.98 0.72 s0.66 0.62 0.88 0.92 c0.2 0.3 0.38 0.68 0.54 1.1 c0.14 0.42 0.22 0.88 0.22 1.34 c0 1.48 -0.58 2.62 -1.72 3.42 c-1.14 0.82 -2.64 1.22 -4.48 1.22 z M106.19999999999999 20 l0 -11.72 l-4.86 0 l0 -3.88 l13.72 0 l0 3.88 l-4.86 0 l0 11.72 l-4 0 z M128.624 20.3 c-2.26 0 -4.2 -0.8 -5.82 -2.38 c-1.64 -1.58 -2.46 -3.5 -2.46 -5.72 s0.82 -4.14 2.46 -5.72 c1.62 -1.58 3.56 -2.38 5.82 -2.38 c2.28 0 4.24 0.8 5.86 2.38 s2.42 3.5 2.42 5.72 s-0.8 4.14 -2.42 5.72 s-3.58 2.38 -5.86 2.38 z M128.624 16.44 c1.2 0 2.2 -0.42 3.02 -1.24 s1.22 -1.82 1.22 -3 s-0.4 -2.2 -1.22 -3.02 s-1.82 -1.22 -3.02 -1.22 c-1.18 0 -2.18 0.42 -3 1.24 s-1.24 1.82 -1.24 3 s0.42 2.18 1.24 3 s1.82 1.24 3 1.24 z M152.872 20 l0 -15.6 l7.76 0 c1.62 0 2.88 0.4 3.76 1.2 c0.86 0.8 1.3 1.86 1.3 3.2 c0 1.52 -0.64 2.64 -1.9 3.34 c1.26 0.72 1.9 1.94 1.9 3.46 c0 1.34 -0.44 2.4 -1.3 3.2 c-0.88 0.82 -2.14 1.2 -3.76 1.2 l-7.76 0 z M156.872 10.66 l3.3 0 c0.98 0 1.48 -0.44 1.48 -1.28 c0 -0.38 -0.1 -0.7 -0.32 -0.94 c-0.22 -0.22 -0.52 -0.32 -0.94 -0.32 l-3.52 0 l0 2.54 z M156.872 16.28 l3.52 0 c0.42 0 0.72 -0.1 0.94 -0.32 c0.22 -0.24 0.32 -0.54 0.32 -0.94 c0 -0.84 -0.5 -1.28 -1.48 -1.28 l-3.3 0 l0 2.54 z M170.976 20 l0 -15.6 l11.98 0 l0 3.88 l-7.98 0 l0 2.24 l5.62 0 l0 3.62 l-5.62 0 l0 2 l7.98 0 l0 3.86 l-11.98 0 z M205.564 20.3 c-1.94 0 -3.52 -0.42 -4.76 -1.28 s-1.86 -2.02 -1.86 -3.52 l0 -0.18 l-0.02 -0.8 l3.92 0 l0 0.9 c0 0.34 0.24 0.66 0.7 0.96 s1.1 0.46 1.94 0.46 c0.7 0 1.2 -0.1 1.52 -0.28 c0.3 -0.18 0.46 -0.42 0.46 -0.68 c0 -0.32 -0.2 -0.6 -0.58 -0.84 c-0.4 -0.24 -1.1 -0.52 -2.08 -0.86 c-0.62 -0.22 -1.14 -0.4 -1.56 -0.56 s-0.92 -0.4 -1.5 -0.72 c-0.58 -0.3 -1.06 -0.64 -1.4 -0.98 s-0.64 -0.76 -0.9 -1.28 s-0.38 -1.08 -0.38 -1.7 c0 -1.46 0.56 -2.64 1.7 -3.52 s2.6 -1.32 4.4 -1.32 c1.86 0 3.38 0.46 4.58 1.38 s1.8 2.14 1.8 3.66 l0 0.98 l-3.9 0 l0 -0.9 c0 -0.42 -0.2 -0.82 -0.62 -1.16 s-1.02 -0.5 -1.78 -0.5 c-0.62 0 -1.1 0.1 -1.42 0.3 c-0.32 0.22 -0.48 0.46 -0.48 0.76 s0.18 0.54 0.54 0.74 c0.36 0.22 1.04 0.5 2.04 0.84 l1.02 0.36 l1.08 0.44 c0.46 0.22 0.84 0.4 1.12 0.58 s0.6 0.42 0.98 0.72 s0.66 0.62 0.88 0.92 c0.2 0.3 0.38 0.68 0.54 1.1 c0.14 0.42 0.22 0.88 0.22 1.34 c0 1.48 -0.58 2.62 -1.72 3.42 c-1.14 0.82 -2.64 1.22 -4.48 1.22 z M224.208 20 c-2.26 0 -4.02 -0.64 -5.28 -1.96 c-1.26 -1.3 -1.88 -2.96 -1.88 -5.02 l0 -8.62 l4 0 l0 8.38 c0 1.12 0.26 1.96 0.8 2.54 c0.54 0.6 1.32 0.9 2.36 0.9 s1.84 -0.3 2.38 -0.9 c0.54 -0.58 0.82 -1.42 0.82 -2.54 l0 -8.38 l3.98 0 l0 8.62 c0 2.04 -0.64 3.7 -1.9 5.02 s-3.02 1.96 -5.28 1.96 z M243.31199999999998 20.3 c-1.94 0 -3.52 -0.42 -4.76 -1.28 s-1.86 -2.02 -1.86 -3.52 l0 -0.18 l-0.02 -0.8 l3.92 0 l0 0.9 c0 0.34 0.24 0.66 0.7 0.96 s1.1 0.46 1.94 0.46 c0.7 0 1.2 -0.1 1.52 -0.28 c0.3 -0.18 0.46 -0.42 0.46 -0.68 c0 -0.32 -0.2 -0.6 -0.58 -0.84 c-0.4 -0.24 -1.1 -0.52 -2.08 -0.86 c-0.62 -0.22 -1.14 -0.4 -1.56 -0.56 s-0.92 -0.4 -1.5 -0.72 c-0.58 -0.3 -1.06 -0.64 -1.4 -0.98 s-0.64 -0.76 -0.9 -1.28 s-0.38 -1.08 -0.38 -1.7 c0 -1.46 0.56 -2.64 1.7 -3.52 s2.6 -1.32 4.4 -1.32 c1.86 0 3.38 0.46 4.58 1.38 s1.8 2.14 1.8 3.66 l0 0.98 l-3.9 0 l0 -0.9 c0 -0.42 -0.2 -0.82 -0.62 -1.16 s-1.02 -0.5 -1.78 -0.5 c-0.62 0 -1.1 0.1 -1.42 0.3 c-0.32 0.22 -0.48 0.46 -0.48 0.76 s0.18 0.54 0.54 0.74 c0.36 0.22 1.04 0.5 2.04 0.84 l1.02 0.36 l1.08 0.44 c0.46 0.22 0.84 0.4 1.12 0.58 s0.6 0.42 0.98 0.72 s0.66 0.62 0.88 0.92 c0.2 0.3 0.38 0.68 0.54 1.1 c0.14 0.42 0.22 0.88 0.22 1.34 c0 1.48 -0.58 2.62 -1.72 3.42 c-1.14 0.82 -2.64 1.22 -4.48 1.22 z M259.656 20 l0 -11.72 l-4.86 0 l0 -3.88 l13.72 0 l0 3.88 l-4.86 0 l0 11.72 l-4 0 z M273.8 20 l6.32 -15.6 l3.96 0 l6.3 15.6 l-4.36 0 l-1.26 -3.48 l-5.3 0 l-1.3 3.48 l-4.36 0 z M280.7 13.280000000000001 l2.78 -0.02 l-1.38 -3.74 z M295.664 20 l0 -15.6 l4 0 l0 15.6 l-4 0 z M304.948 20 l0 -15.6 l3.4 0 l6.96 8.72 l0 -8.72 l3.98 0 l0 15.6 l-3.38 0 l-6.96 -8.7 l0 8.7 l-4 0 z M324.572 20 l6.32 -15.6 l3.96 0 l6.3 15.6 l-4.36 0 l-1.26 -3.48 l-5.3 0 l-1.3 3.48 l-4.36 0 z M331.472 13.280000000000001 l2.78 -0.02 l-1.38 -3.74 z M346.436 20 l0 -15.6 l7.76 0 c1.62 0 2.88 0.4 3.76 1.2 c0.86 0.8 1.3 1.86 1.3 3.2 c0 1.52 -0.64 2.64 -1.9 3.34 c1.26 0.72 1.9 1.94 1.9 3.46 c0 1.34 -0.44 2.4 -1.3 3.2 c-0.88 0.82 -2.14 1.2 -3.76 1.2 l-7.76 0 z M350.436 10.66 l3.3 0 c0.98 0 1.48 -0.44 1.48 -1.28 c0 -0.38 -0.1 -0.7 -0.32 -0.94 c-0.22 -0.22 -0.52 -0.32 -0.94 -0.32 l-3.52 0 l0 2.54 z M350.436 16.28 l3.52 0 c0.42 0 0.72 -0.1 0.94 -0.32 c0.22 -0.24 0.32 -0.54 0.32 -0.94 c0 -0.84 -0.5 -1.28 -1.48 -1.28 l-3.3 0 l0 2.54 z M364.53999999999996 20 l0 -15.6 l3.98 0 l0 11.74 l7.48 0 l0 3.86 l-11.46 0 z M381.28399999999993 20 l0 -15.6 l11.98 0 l0 3.88 l-7.98 0 l0 2.24 l5.62 0 l0 3.62 l-5.62 0 l0 2 l7.98 0 l0 3.86 l-11.98 0 z"/></g>
			</g>
		</svg>
	